<?xml version="1.0" encoding="utf-8"?>
<!-- Generator: Adobe Illustrator 24.2.0, SVG Export Plug-In . SVG Version: 6.00 Build 0)  -->
<svg version="1.1" xmlns="http://www.w3.org/2000/svg" xmlns:xlink="http://www.w3.org/1999/xlink" x="0px" y="0px"
	 width="166.882px" height="205.322px" viewBox="0 0 166.882 205.322" style="enable-background:new 0 0 166.882 205.322;"
	 xml:space="preserve">
<g id="SO_x5F_XXX_x5F_Mark_x5F_1-Line">
</g>
<g id="SO_x5F_XXX_x5F_Mark_x5F_Center">
	<g>
		<g>
			<g>
				<g>
					<path style="fill:#636259;" d="M92.117,134.673c-0.109,1.03,0.131,1.54,1.348,1.54h3.697c2.506,0,3.229-0.317,4.199-0.736
						l-1.469,3.692H88.163c-3.467,0-4.219-1.837-3.654-4.687c0.465-2.342,0.672-3.215,1.4-5.695
						c0.863-2.928,2.549-4.715,6.021-4.715h11.795l-0.264,3.757c-0.445-0.546-1.537-0.804-3.371-0.804h-4.332
						c-1.221,0-1.641,0.389-2.121,1.543C93.052,129.981,92.3,132.959,92.117,134.673z"/>
				</g>
				<g>
					<path style="fill:#636259;" d="M49.538,124.072l0.014,1.606c0.824-1.095,1.334-1.606,2.395-1.606h6.398
						c3.467,0,4.27,1.924,3.582,4.691l-1.428,5.719c-0.689,2.761-2.449,4.687-5.924,4.687h-5.939c-1.381,0-1.551-0.864-1.594-1.478
						H46.98l-1.09,4.371c-0.385,1.543-0.264,2.217-0.063,2.826h-8.225l4.484-17.989c0.385-1.54,0.266-2.216,0.061-2.827H49.538z
						 M48.417,136.199h2.363c1.221,0,1.643-0.387,2.121-1.541c0.584-1.41,1.342-4.387,1.52-6.102
						c0.109-1.031-0.129-1.545-1.35-1.545h-1.231l-0.369,0.014h-0.773c-0.742,0-1.145,0.324-1.352,1.158l-1.711,6.873
						c-0.209,0.839,0.017,1.139,0.754,1.139L48.417,136.199z"/>
				</g>
				<g>
					<path style="fill:#636259;" d="M81.158,124.075v-0.003h-0.105H69.806h-0.289l-0.004,0.011
						c-3.268,0.099-4.893,1.862-5.725,4.704c-0.734,2.48-0.941,3.354-1.402,5.695c-0.551,2.767,0.152,4.576,3.369,4.68l-0.002,0.007
						h0.291h11.73h3.078l1.477-3.595c-1.359,0.542-2.154,0.639-3.602,0.639h-3.691h-3.6c-0.229,0-0.439-0.021-0.643-0.054
						c-0.738-0.146-0.893-0.638-0.805-1.486c0.045-0.409,0.123-0.895,0.225-1.411h12.918l1.15-4.628
						C85.062,125.523,84.466,124.107,81.158,124.075z M76.992,128.247l-0.512,2.058l-5.553,0.006
						c0.195-0.677,0.398-1.291,0.586-1.742c0.475-1.154,0.898-1.543,2.121-1.543h2.568C77.04,127.025,77.208,127.379,76.992,128.247
						z"/>
				</g>
				<g>
					<path style="fill:#636259;" d="M106.195,127.539c0.52-2.087,0.287-2.696,0.025-3.467h8.42l-2.902,11.631
						c-0.518,2.086-0.285,2.696-0.027,3.466h-9.254c0.645-0.77,1.18-1.38,1.701-3.466L106.195,127.539z M115.937,118.608
						l-0.992,3.985h-7.457l0.99-3.985H115.937z"/>
				</g>
				<g>
					<path style="fill:#636259;" d="M132.589,124.072c3.211,0,4.725,1.41,3.662,5.687l-1.641,6.585
						c-0.385,1.543-0.264,2.215,0.029,2.825h-7.582l-0.018-1.862l-0.018,0.194c-0.717,1.349-1.441,1.668-3.496,1.668h-5.398
						c-3.402,0-4.018-1.362-3.328-4.558l0.273-0.9c0.93-3.146,2.195-4.756,5.6-4.756h6.906c1.061,0,1.352-0.26,1.525-0.966
						c0.201-0.8-0.404-0.964-1.043-0.964h-7.549c-1.412,0-2.168,0.194-3.184,0.645l1.443-3.598H132.589z M127.9,131.91
						c-0.182,0-3.139,0-3.139,0c-1.168,0.032-1.557-0.002-1.979,1.236c0,0-0.285,0.664-0.387,1.688
						c-0.092,1.018,0.143,1.348,1.289,1.379h1.766c1.191,0,1.66-0.224,2.143-2.15l0.484-1.938l0.072-0.307
						C128.15,131.818,128.085,131.91,127.9,131.91z"/>
				</g>
				<g>
					<path style="fill:#636259;" d="M141.466,122.078c0.523-2.088,0.289-2.697,0.033-3.47h8.418l-4.262,17.095
						c-0.523,2.086-0.287,2.696-0.027,3.466h-9.254c0.637-0.77,1.176-1.38,1.697-3.466L141.466,122.078z"/>
				</g>
				<g>
					<path style="fill:#636259;" d="M17.31,135.169c0.328,0.517,0.957,0.602,2.996,0.749c2.045,0.146,5.695,0.123,7.229,0
						c1.537-0.119,2.234-0.354,2.516-1.119c0.176-0.476,0.205-0.58,0.291-1.066c0.135-0.796-0.234-1.389-1.457-1.389
						c0,0-1.248,0.049-5.27,0.023c-4.016-0.023-5.566-1.281-5.07-4.527c0.145-0.949,0.404-2.111,1.033-4.152
						c1.057-3.416,3.152-5.094,6.93-5.094h14.049l-0.223,4.172c-0.461-0.486-1.066-0.992-2.607-0.992h-8.203
						c-1.223,0-1.85,0.355-2.145,1.098c-0.258,0.646-0.332,0.973-0.355,1.416c-0.031,0.779,0.426,1.053,1.65,1.053l5.615-0.027
						c4.834,0,4.867,3.23,4.748,4.473c-0.121,1.24-0.359,2.485-1.016,4.602c-1.102,3.554-3.938,4.881-6.713,4.881H16.964
						L17.31,135.169z"/>
				</g>
			</g>
			<g>
				<g>
					<path style="fill:#636259;" d="M110.939,156.895c3.475,0,4.227,1.839,3.66,4.689c-0.463,2.339-0.67,3.213-1.398,5.695
						c-0.865,2.922-2.557,4.714-6.023,4.714"/>
				</g>
				<g>
					<path style="fill:#636259;" d="M133.878,167.512c-0.109,1.023,0.129,1.542,1.35,1.542h3.697c2.506,0,3.23-0.321,4.197-0.739
						l-1.467,3.694h-11.727c-3.467,0-4.217-1.842-3.654-4.692c0.461-2.334,0.668-3.209,1.395-5.694
						c0.859-2.923,2.555-4.714,6.025-4.714h11.793l-0.264,3.758c-0.441-0.548-1.535-0.803-3.365-0.803h-4.344
						c-1.213,0-1.637,0.389-2.113,1.543C134.818,162.816,134.062,165.792,133.878,167.512z"/>
				</g>
				<g>
					<path style="fill:#636259;" d="M102.109,156.908l0.016,1.607c0.82-1.094,1.334-1.607,2.393-1.607h6.395
						c3.473,0,4.273,1.93,3.586,4.689l-1.426,5.719c-0.691,2.762-2.455,4.692-5.92,4.692h-5.947c-1.385,0-1.555-0.871-1.592-1.481
						h-0.068l-1.088,4.371c-0.383,1.545-0.264,2.219-0.063,2.828h-8.227l4.492-17.99c0.383-1.544,0.26-2.218,0.059-2.828H102.109z
						 M100.984,169.037h2.367c1.223,0,1.643-0.391,2.119-1.541c0.586-1.412,1.342-4.389,1.521-6.106
						c0.111-1.026-0.127-1.538-1.35-1.538h-1.23l-0.371,0.012h-0.771c-0.74,0-1.145,0.321-1.352,1.158l-1.713,6.873
						c-0.207,0.838,0.014,1.141,0.754,1.141L100.984,169.037z"/>
				</g>
				<g>
					<path style="fill:#636259;" d="M29.907,154.916c0.52-2.089,0.285-2.699,0.029-3.471h8.42l-4.262,17.093
						c-0.521,2.087-0.289,2.697-0.027,3.471h-9.252c0.639-0.773,1.176-1.384,1.697-3.471L29.907,154.916z"/>
				</g>
				<g>
					<path style="fill:#636259;" d="M41.493,172.041c-3.586,0-4.367-1.973-3.672-5.49l1.523-6.066
						c0.523-2.087,0.287-2.768,0.031-3.541h8.422l-2.693,10.795c-0.166,0.675,0.092,1.35,0.918,1.35h2.795
						c0.645,0,1.004-0.422,1.219-1.281l1.994-8.001c0.473-1.901,0.354-2.187,0.102-2.862h8.191l-4.115,16.516
						c-0.709,2.855-2.518,4.303-5.283,4.303H36.052l0.346-3.691c0.619,0.352,1.293,0.737,3.09,0.737h7.043
						c1.451,0,1.932-0.679,2.107-1.386l0.611-2.662h-0.01c-0.59,0.965-1.274,1.281-2.768,1.281H41.493z"/>
				</g>
				<g>
					<path style="fill:#636259;" d="M69.689,156.908l-0.262,1.83h0.01c0.389-0.668,1.063-1.83,2.471-1.83h6.775
						c1.828,0,2.166,0.711,2.277,1.641h0.016c0.279-0.611,0.828-1.641,2.111-1.641h5.205c2.506,0,4.414,0.705,3.121,5.911
						l-1.43,5.719c-0.52,2.087-0.285,2.697-0.027,3.471h-8.609c0.641-0.773,1.18-1.384,1.701-3.471l1.893-7.585
						c0.205-0.816-0.256-1.09-0.66-1.09h-2.508c-0.582,0-1.012,0.321-1.205,1.09l-1.889,7.585c-0.52,2.087-0.289,2.697-0.033,3.471
						h-8.609c0.643-0.773,1.18-1.384,1.703-3.471l1.889-7.585c0.129-0.361-0.119-1.09-0.658-1.09h-2.508
						c-0.58,0-1.01,0.321-1.207,1.09l-1.881,7.585c-0.525,2.087-0.291,2.697-0.031,3.471h-8.615
						c0.642-0.773,1.182-1.384,1.701-3.471l2.035-8.161c0.521-2.086,0.287-2.698,0.031-3.469H69.689z"/>
				</g>
				<g>
					<path style="fill:#636259;" d="M117.781,160.377c0.521-2.086,0.287-2.698,0.027-3.469h8.424l-2.896,11.63
						c-0.525,2.087-0.289,2.697-0.033,3.471h-9.254c0.643-0.773,1.182-1.384,1.701-3.471L117.781,160.377z M127.525,151.445
						l-0.992,3.984h-7.457l0.996-3.984H127.525z"/>
				</g>
				<g>
					<path style="fill:#636259;" d="M161.294,161.693c3.514,0,4.4,2.182,4.035,4.032l-0.662,2.376
						c-0.486,1.951-2.18,4.033-5.592,4.033h-14.242l0.328-3.678c1.236,0.652,1.859,0.881,4.561,0.881h6.471
						c0.781,0,1.057-0.193,1.209-0.813l0.084-0.326c0.154-0.618-0.027-1.105-0.809-1.105h-5.98c-3.516,0-4.301-1.984-3.934-3.867
						l0.742-2.475c0.58-2.34,2.889-3.901,5.82-3.901h13.197l-0.301,3.804c-0.424-0.748-2.508-1.004-4.297-1.004h-5.947
						c-0.75,0-1.09,0.194-1.18,0.55l-0.164,0.647c-0.086,0.361,0.061,0.846,0.805,0.846H161.294z"/>
				</g>
				<g>
					<path style="fill:#636259;" d="M2.781,157.484c1.531-4.828,2.799-5.902,6.693-6.075c3.879-0.175,9.67-0.151,13.234,0
						c3.137,0.132,4.533,1.948,3.678,6.081c-0.838,4.054-0.908,4.391-2.115,8.481c-1.332,4.521-2.818,5.974-6.715,6.079
						c-3.611,0.103-9.225,0.111-13.238,0c-3.264-0.088-4.592-1.869-3.676-6.079C1.665,161.298,1.859,160.402,2.781,157.484z
						 M18.208,156.4c0.143-0.807-0.338-1.511-1.152-1.548c-1.127-0.053-2.252-0.063-3.408,0c-0.699,0.037-1.473,0.302-1.897,1.389
						c-0.508,1.316-2.242,8.556-2.678,10.78c-0.156,0.791,0.215,1.529,1.152,1.59c1.133,0.072,2.115,0.067,3.404,0
						c0.764-0.042,1.646-0.596,1.918-1.445C16.13,165.342,18.038,157.345,18.208,156.4z"/>
				</g>
			</g>
			<g>
				<g>
					<path style="fill:#E30613;" d="M37.845,37.915c1.912,0.822,4.467-0.842,5.695-3.719c1.236-2.871,0.682-5.866-1.238-6.687
						c-1.92-0.823-4.463,0.842-5.695,3.716c-0.885,2.06-0.846,4.185-0.051,5.525C36.87,37.275,37.304,37.684,37.845,37.915z"/>
				</g>
				<g>
					<path style="fill:#E30613;" d="M60.294,7.38c1.939,0,3.51-1.57,3.51-3.508c0-1.942-1.57-3.514-3.51-3.514
						c-1.936,0-3.504,1.571-3.504,3.514C56.79,5.81,58.359,7.38,60.294,7.38z"/>
				</g>
				<g>
					<path style="fill:#E30613;" d="M60.671,15.593c-0.549,4.509-0.854,13.776-0.082,20.153c0,0,2.898-0.842,2.893-0.908
						c-0.473-7.063-0.395-14.41,0.225-20.468c5.463,1.938,9.152,3.635,12.041,5.033c0.699-0.752,1.285-1.591,1.949-2.368
						c-3.102-1.91-11.828-5.406-11.916-5.436c2.027-0.566,8.908-1.813,15.758-1.959c0.037,0-0.053-2.357,0-2.353
						C75.199,7.1,66.365,9.053,65.495,9.295c4.309-3.217,8.588-5.125,12.344-6.884c-0.301-0.188-1.57-1.237-1.57-1.237
						c-8.02,3.282-14.049,8.254-14.094,8.295C61.097,10.466,61.228,11.014,60.671,15.593z"/>
				</g>
				<g>
					<path style="fill:#E30613;" d="M41.644,23.649c6.268-5.688,12.76-8.321,12.662-8.23c-5.012,4.684-7.969,8.554-9.994,11.437
						c0.352,0.497,0.623,1.044,0.99,1.529c5.846-7.433,6.074-7.725,10.125-11.534c-0.008,0.096-1.377,8.113-0.129,20.609
						c0,0,2.652-1,2.658-0.895c-0.34-6.745-1.098-14.564,0.629-23.185c0.455-2.504-0.406-2.84-8.906-4.156
						c-0.557,0.637-0.938,0.922-2.205,2.123l7.363,1.465c-8.611,3.516-13.902,9.344-13.902,9.344S41.583,23.711,41.644,23.649z"/>
				</g>
				<g>
					<path style="fill:#E30613;" d="M106.281,7.38c1.936,0,3.508-1.57,3.508-3.508c0-1.942-1.572-3.514-3.508-3.514
						c-1.938,0-3.508,1.571-3.508,3.514C102.773,5.81,104.343,7.38,106.281,7.38z"/>
				</g>
				<g>
					<path style="fill:#E30613;" d="M85.035,9.641c6.854,0.146,13.73,1.393,15.76,1.959c-0.084,0.029-8.814,3.525-11.92,5.436
						c0.666,0.777,1.25,1.616,1.955,2.368c2.885-1.398,6.572-3.095,12.041-5.033c0.617,6.058,0.695,13.405,0.225,20.468
						c-0.004,0.066,2.889,0.908,2.889,0.908c0.773-6.377,0.471-15.645-0.076-20.153c-0.559-4.579-0.428-5.127-1.504-6.124
						c-0.045-0.041-6.078-5.013-14.102-8.295c0,0-1.26,1.05-1.568,1.237c3.76,1.759,8.037,3.667,12.344,6.884
						c-0.865-0.242-9.703-2.195-16.043-2.008C85.093,7.283,84.997,9.641,85.035,9.641z"/>
				</g>
				<g>
					<path style="fill:#E30613;" d="M107.984,13.381c1.736,8.621,0.978,16.44,0.637,23.185c0.004-0.105,2.658,0.895,2.658,0.895
						c1.248-12.496-0.119-20.514-0.135-20.609c4.055,3.81,4.283,4.101,10.133,11.534c0.363-0.485,0.633-1.032,0.988-1.529
						c-2.025-2.883-4.988-6.753-9.998-11.437c-0.098-0.092,6.396,2.541,12.66,8.23c0.068,0.062,0.715-1.493,0.715-1.493
						s-5.295-5.828-13.9-9.344l7.361-1.465c-1.273-1.201-1.654-1.486-2.207-2.123C108.394,10.541,107.527,10.877,107.984,13.381z"/>
				</g>
				<g>
					<path style="fill:#E30613;" d="M34.96,39.799c-1.084-4.289,0.646-10.092,0.611-9.978c-2.227,7.546-4.561,14.429-1.502,31.542
						c-0.65-4.02-0.342-12.779,0.129-15.693C34.527,43.671,35.48,41.861,34.96,39.799z"/>
				</g>
				<g>
					<path style="fill:#E30613;" d="M50.32,41.103c-3.893,0.928-8.975,2.03-13,2.22c-1.15,0.055-1.389,1.362-1.521,1.844
						C32.4,57.508,36.353,74.431,46.077,84.711c0,0,0.139-0.209,0.125-0.227c-6.582-8.9-8.518-16.025-9.555-29.44
						c0.008,0.095,2.211,8.958,7.723,16.718c-0.068-0.089,1.158-2.259,1.35-2.503c-3.432-5.563-6.266-11.963-7.801-17.172
						c1.162,3.943,9.096,9.726,12.01,11.161l0.463-4.589c-0.299-0.166-8.223-4.327-12.25-11.201
						c0.074-0.006,10.211-1.363,12.592-2.397C50.55,43.88,50.411,41.082,50.32,41.103z"/>
				</g>
				<g>
					<path style="fill:#E30613;" d="M130.038,43.322c-4.018-0.283-9.488-1.292-13.377-2.22c-0.096-0.021-0.23,2.777-0.414,3.959
						c2.379,1.034,12.516,2.392,12.592,2.397c-4.025,6.874-11.955,11.035-12.246,11.201l0.455,4.589
						c2.922-1.436,10.848-7.218,12.012-11.161c-1.539,5.209-4.375,11.609-7.799,17.172c0.193,0.244,1.416,2.414,1.35,2.503
						c5.51-7.76,7.713-16.623,7.723-16.718c-1.033,13.414-2.977,20.539-9.559,29.44c-0.014,0.018,0.125,0.227,0.125,0.227
						c9.731-10.28,13.682-27.203,10.285-39.545C131.05,44.685,130.812,43.377,130.038,43.322z"/>
				</g>
				<g>
					<path style="fill:#E30613;" d="M123.304,33.551c0.951,2.98,3.332,4.877,5.313,4.244c0.563-0.176,1.029-0.539,1.396-1.035
						c0.922-1.254,1.057-3.336,0.482-5.502c-0.955-3.59-3.334-5.283-5.316-4.65C123.193,27.238,122.355,30.574,123.304,33.551z"/>
				</g>
				<g>
					<path style="fill:#E30613;" d="M131.308,29.821c-0.037-0.114,1.689,5.688,0.611,9.978c-0.521,2.063,0.441,3.872,0.762,5.871
						c1.004,6.335,0.781,11.674,0.129,15.693C135.87,44.25,133.536,37.367,131.308,29.821z"/>
				</g>
				<g>
					<path style="fill:#E30613;" d="M90.867,48.85c0-4.24-3.436-7.678-7.678-7.678c-4.246,0-7.682,3.438-7.682,7.678
						c0,4.242,3.436,7.679,7.682,7.679C87.431,56.528,90.867,53.092,90.867,48.85z"/>
				</g>
				<g>
					<path style="fill:#E30613;" d="M114.49,59.676c-9.469,4.547-16.459,5.5-21.236,6.335c8.182-6.447,11.877-11.032,15.262-15.563
						c-0.625-0.509-0.902-0.753-2.93-2.995c-1.754,2.402-6.408,8.783-16.555,16.188c-1.943,1.421-2.527,1.894-3.084,3.241
						c-0.232,0.559-0.225,1.697-0.221,2.527c0.025,3.801-0.592,32.838-0.605,32.997c0.965-0.004,4.061-0.159,4.068-0.243
						c1.205-12.932,1.457-18.006,1.473-23.818c0-2.1,0.102-3.803,0.102-3.986c6.727,3.434,11.289,5.242,16.887,7.209
						c0.326-0.408,2.459-3.783,2.543-3.746c-5.311-2.426-10.742-4.459-15.945-7.057c7.875-1.515,13.684-2.845,20.701-6.508
						C115.064,64.193,114.365,59.736,114.49,59.676z"/>
				</g>
				<g>
					<path style="fill:#E30613;" d="M81.255,69.41c0.004-0.83,0.01-1.969-0.221-2.527c-0.557-1.348-1.141-1.82-3.088-3.241
						c-10.143-7.405-14.799-13.786-16.553-16.188c-2.031,2.242-2.307,2.486-2.932,2.995c3.391,4.53,7.08,9.115,15.268,15.563
						c-4.783-0.835-11.771-1.788-21.234-6.335c0.125,0.061-0.576,4.518-0.463,4.582c7.01,3.663,12.828,4.993,20.695,6.508
						c-5.197,2.598-10.631,4.631-15.937,7.057c0.086-0.037,2.209,3.338,2.533,3.746c5.607-1.967,10.166-3.775,16.895-7.209
						c0,0.184,0.1,1.887,0.1,3.986c0.019,5.813,0.271,10.887,1.473,23.818c0.008,0.084,3.105,0.239,4.068,0.243
						C81.847,102.248,81.23,73.211,81.255,69.41z"/>
				</g>
				<g>
					<path style="fill:#E30613;" d="M72.447,97.732c0-0.661-0.354-1.055-1.41-1.055h-1.744v3.984h0.488v-1.84h0.896l1.141,1.84
						h0.584l-1.205-1.84C71.904,98.806,72.447,98.514,72.447,97.732z M70.525,98.438h-0.744v-1.412h1.141
						c0.492,0,1.004,0.075,1.004,0.697C71.925,98.53,71.091,98.438,70.525,98.438z"/>
				</g>
				<g>
					<path style="fill:#E30613;" d="M70.62,95.105c-1.977,0-3.576,1.603-3.576,3.563c0,1.976,1.6,3.575,3.576,3.575
						c1.973,0,3.563-1.6,3.563-3.575C74.183,96.707,72.593,95.105,70.62,95.105z M70.62,101.77c-1.744,0-3.01-1.354-3.01-3.103
						c0-1.737,1.266-3.091,3.01-3.091c1.736,0,2.998,1.354,2.998,3.091C73.618,100.416,72.357,101.77,70.62,101.77z"/>
				</g>
			</g>
		</g>
		<g>
			<path style="fill:#636259;" d="M19.509,202.352l-0.522,2.227H7.877l4.564-19.056h2.667l-4.042,16.829H19.509z"/>
			<path style="fill:#636259;" d="M23.606,204.579h-2.558l3.438-14.299h2.557L23.606,204.579z M26.576,187.695
				c-0.422,0-0.775-0.128-1.059-0.385c-0.285-0.256-0.426-0.614-0.426-1.072c0-0.586,0.183-1.049,0.55-1.389
				c0.367-0.339,0.779-0.509,1.237-0.509c0.421,0,0.779,0.133,1.073,0.399c0.293,0.266,0.44,0.637,0.44,1.113
				c0,0.55-0.193,0.995-0.578,1.334C27.428,187.526,27.015,187.695,26.576,187.695z"/>
			<path style="fill:#636259;" d="M33.395,204.937c-0.935,0-1.742-0.133-2.42-0.398c-0.679-0.266-1.247-0.633-1.705-1.1
				c-0.458-0.468-0.797-1.013-1.018-1.636c-0.22-0.623-0.33-1.283-0.33-1.98c0-1.283,0.192-2.521,0.577-3.712
				c0.385-1.191,0.935-2.245,1.65-3.162c0.715-0.917,1.586-1.645,2.612-2.186c1.027-0.54,2.19-0.811,3.493-0.811
				c0.751,0,1.397,0.096,1.938,0.289c0.541,0.192,0.98,0.454,1.32,0.784c0.339,0.33,0.591,0.71,0.756,1.141
				c0.165,0.431,0.247,0.876,0.247,1.333c0,0.862-0.156,1.591-0.468,2.187c-0.312,0.596-0.724,1.095-1.237,1.498
				c-0.513,0.403-1.114,0.715-1.801,0.935c-0.688,0.22-1.402,0.394-2.145,0.523c-0.743,0.128-1.495,0.215-2.255,0.261
				c-0.761,0.046-1.481,0.087-2.159,0.123c-0.019,0.147-0.028,0.266-0.028,0.357c0,0.092,0,0.165,0,0.22
				c0,0.422,0.05,0.82,0.151,1.196c0.101,0.376,0.289,0.706,0.564,0.99c0.275,0.284,0.655,0.509,1.141,0.674
				c0.485,0.165,1.122,0.247,1.911,0.247c0.348,0,0.71-0.032,1.086-0.096c0.375-0.064,0.733-0.146,1.073-0.247
				c0.339-0.101,0.641-0.202,0.907-0.303c0.266-0.101,0.454-0.197,0.564-0.289l0.22,2.172c-0.367,0.202-0.958,0.418-1.773,0.646
				C35.452,204.822,34.494,204.937,33.395,204.937z M30.782,197.072c1.063-0.037,2.035-0.106,2.915-0.207
				c0.88-0.101,1.641-0.275,2.282-0.522c0.642-0.248,1.142-0.582,1.499-1.003c0.358-0.422,0.536-0.972,0.536-1.65
				c0-0.165-0.032-0.339-0.096-0.522c-0.064-0.183-0.174-0.353-0.33-0.509c-0.156-0.156-0.371-0.284-0.646-0.385
				c-0.275-0.101-0.615-0.151-1.018-0.151c-0.642,0-1.242,0.137-1.801,0.412c-0.56,0.275-1.059,0.637-1.499,1.086
				c-0.44,0.449-0.816,0.972-1.127,1.567C31.185,195.784,30.947,196.412,30.782,197.072z"/>
			<path style="fill:#636259;" d="M41.534,199.464c0-1.247,0.188-2.447,0.563-3.602c0.375-1.155,0.93-2.172,1.664-3.053
				c0.733-0.88,1.631-1.581,2.695-2.104c1.063-0.522,2.283-0.784,3.657-0.784c0.605,0,1.183,0.041,1.732,0.124
				c0.55,0.083,1.073,0.243,1.567,0.481l-0.962,2.145c-0.293-0.165-0.637-0.293-1.031-0.385c-0.395-0.091-0.903-0.137-1.526-0.137
				c-0.898,0-1.705,0.197-2.42,0.591c-0.715,0.394-1.325,0.916-1.829,1.567c-0.504,0.651-0.889,1.402-1.155,2.255
				c-0.266,0.852-0.399,1.737-0.399,2.653c0,0.477,0.05,0.926,0.151,1.348c0.101,0.422,0.279,0.793,0.536,1.114
				c0.256,0.321,0.6,0.573,1.031,0.756c0.431,0.184,0.976,0.275,1.636,0.275c0.33,0,0.678-0.032,1.045-0.096
				c0.366-0.064,0.706-0.142,1.017-0.233c0.312-0.092,0.591-0.188,0.839-0.289c0.248-0.101,0.426-0.197,0.536-0.289l0.22,2.173
				c-0.349,0.22-0.89,0.436-1.622,0.645c-0.733,0.211-1.567,0.316-2.503,0.316c-0.88,0-1.659-0.133-2.337-0.398
				c-0.678-0.266-1.246-0.642-1.704-1.127c-0.458-0.486-0.807-1.063-1.045-1.732C41.653,201.009,41.534,200.272,41.534,199.464z"/>
			<path style="fill:#636259;" d="M52.643,204.579l5.032-20.899l2.668-0.44l-1.76,7.232c0.422-0.147,0.866-0.266,1.334-0.358
				c0.467-0.091,0.939-0.137,1.416-0.137c0.825,0,1.535,0.115,2.131,0.344c0.595,0.23,1.077,0.541,1.443,0.935
				c0.367,0.394,0.637,0.871,0.812,1.43c0.174,0.559,0.261,1.169,0.261,1.829c0,0.807-0.128,1.724-0.385,2.75l-1.76,7.314h-2.558
				l1.623-6.765c0.128-0.513,0.252-1.036,0.371-1.567c0.119-0.531,0.179-1.036,0.179-1.512c0-0.733-0.202-1.343-0.605-1.829
				c-0.404-0.486-1.155-0.729-2.255-0.729c-0.44,0-0.894,0.042-1.361,0.124c-0.467,0.083-0.857,0.197-1.169,0.344l-2.859,11.934
				H52.643z"/>
			<path style="fill:#636259;" d="M72.084,204.964c-1.375,0-2.383-0.303-3.024-0.907c-0.642-0.605-0.962-1.485-0.962-2.64
				c0-0.752,0.128-1.714,0.385-2.888l2.942-12.237l2.667-0.44l-1.073,4.427h4.867l-0.522,2.145h-4.867l-1.512,6.325
				c-0.22,0.862-0.33,1.613-0.33,2.255c0,0.605,0.165,1.04,0.495,1.306c0.33,0.266,0.88,0.398,1.65,0.398
				c0.531,0,1.054-0.086,1.567-0.261c0.513-0.174,0.907-0.334,1.182-0.481l0.193,2.172c-0.275,0.165-0.743,0.344-1.403,0.537
				C73.679,204.868,72.927,204.964,72.084,204.964z"/>
			<path style="fill:#636259;" d="M83.248,204.937c-0.935,0-1.742-0.133-2.42-0.398c-0.679-0.266-1.247-0.633-1.705-1.1
				c-0.458-0.468-0.797-1.013-1.018-1.636c-0.22-0.623-0.33-1.283-0.33-1.98c0-1.283,0.192-2.521,0.577-3.712
				c0.385-1.191,0.935-2.245,1.65-3.162c0.715-0.917,1.585-1.645,2.612-2.186c1.027-0.54,2.19-0.811,3.493-0.811
				c0.752,0,1.397,0.096,1.938,0.289c0.54,0.192,0.98,0.454,1.32,0.784c0.339,0.33,0.591,0.71,0.756,1.141
				c0.165,0.431,0.247,0.876,0.247,1.333c0,0.862-0.156,1.591-0.468,2.187c-0.312,0.596-0.724,1.095-1.237,1.498
				c-0.513,0.403-1.114,0.715-1.801,0.935c-0.688,0.22-1.402,0.394-2.145,0.523c-0.743,0.128-1.495,0.215-2.255,0.261
				c-0.761,0.046-1.481,0.087-2.159,0.123c-0.019,0.147-0.028,0.266-0.028,0.357c0,0.092,0,0.165,0,0.22
				c0,0.422,0.05,0.82,0.151,1.196c0.101,0.376,0.289,0.706,0.564,0.99c0.275,0.284,0.655,0.509,1.141,0.674
				c0.485,0.165,1.123,0.247,1.911,0.247c0.348,0,0.71-0.032,1.086-0.096c0.376-0.064,0.733-0.146,1.073-0.247
				c0.339-0.101,0.641-0.202,0.907-0.303c0.266-0.101,0.454-0.197,0.564-0.289l0.22,2.172c-0.367,0.202-0.958,0.418-1.773,0.646
				C85.306,204.822,84.348,204.937,83.248,204.937z M80.636,197.072c1.063-0.037,2.035-0.106,2.914-0.207
				c0.88-0.101,1.641-0.275,2.282-0.522c0.642-0.248,1.142-0.582,1.499-1.003c0.357-0.422,0.536-0.972,0.536-1.65
				c0-0.165-0.032-0.339-0.096-0.522c-0.064-0.183-0.174-0.353-0.33-0.509c-0.156-0.156-0.371-0.284-0.646-0.385
				c-0.275-0.101-0.615-0.151-1.018-0.151c-0.642,0-1.242,0.137-1.801,0.412c-0.56,0.275-1.059,0.637-1.499,1.086
				c-0.44,0.449-0.816,0.972-1.127,1.567C81.039,195.784,80.801,196.412,80.636,197.072z"/>
			<path style="fill:#636259;" d="M93.285,204.579h-2.558l3.3-13.749c0.843-0.257,1.755-0.463,2.736-0.619
				c0.981-0.156,1.856-0.234,2.626-0.234c0.825,0,1.535,0.115,2.131,0.344c0.596,0.23,1.077,0.541,1.444,0.935
				c0.367,0.394,0.637,0.871,0.811,1.43c0.174,0.559,0.261,1.169,0.261,1.829c0,0.422-0.037,0.866-0.11,1.333
				c-0.073,0.468-0.165,0.94-0.275,1.417l-1.76,7.314h-2.558l1.623-6.765c0.128-0.513,0.252-1.036,0.371-1.567
				c0.119-0.531,0.179-1.036,0.179-1.512c0-0.733-0.202-1.343-0.605-1.829c-0.403-0.486-1.155-0.729-2.255-0.729
				c-0.458,0-0.907,0.028-1.347,0.083c-0.44,0.055-0.807,0.128-1.1,0.22L93.285,204.579z"/>
			<path style="fill:#636259;" d="M108.821,202.792c0.385,0,0.774-0.036,1.169-0.11c0.394-0.073,0.742-0.192,1.045-0.357
				c0.302-0.165,0.55-0.389,0.742-0.674c0.192-0.284,0.289-0.637,0.289-1.059c0-0.275-0.046-0.518-0.138-0.728
				c-0.092-0.21-0.238-0.408-0.44-0.591c-0.202-0.183-0.454-0.362-0.756-0.536c-0.302-0.174-0.665-0.372-1.086-0.591
				c-0.422-0.202-0.807-0.403-1.155-0.605c-0.348-0.202-0.655-0.44-0.921-0.715c-0.266-0.275-0.472-0.601-0.619-0.977
				c-0.147-0.376-0.22-0.829-0.22-1.361c0-1.375,0.495-2.48,1.485-3.314c0.99-0.834,2.429-1.251,4.317-1.251
				c0.88,0,1.654,0.087,2.324,0.261c0.669,0.174,1.132,0.335,1.389,0.481l-0.962,2.09c-0.257-0.146-0.669-0.303-1.238-0.468
				c-0.568-0.165-1.201-0.247-1.897-0.247c-0.349,0-0.697,0.037-1.045,0.11c-0.349,0.073-0.665,0.197-0.949,0.371
				c-0.285,0.174-0.514,0.403-0.688,0.688c-0.175,0.285-0.261,0.628-0.261,1.031c0,0.495,0.192,0.903,0.577,1.224
				c0.385,0.321,0.962,0.656,1.732,1.004c0.477,0.22,0.903,0.444,1.279,0.673c0.375,0.229,0.696,0.486,0.962,0.77
				c0.266,0.285,0.467,0.619,0.605,1.004c0.138,0.385,0.206,0.843,0.206,1.375c0,0.769-0.147,1.448-0.44,2.035
				c-0.294,0.587-0.701,1.072-1.224,1.458c-0.522,0.385-1.141,0.673-1.856,0.866c-0.715,0.193-1.495,0.289-2.337,0.289
				c-0.624,0-1.187-0.041-1.691-0.124c-0.504-0.082-0.944-0.179-1.32-0.288c-0.376-0.11-0.688-0.225-0.934-0.344
				c-0.248-0.119-0.436-0.216-0.564-0.289l0.99-2.09c0.129,0.073,0.307,0.165,0.537,0.275c0.229,0.11,0.504,0.22,0.825,0.33
				c0.321,0.11,0.674,0.202,1.059,0.275C107.996,202.755,108.399,202.792,108.821,202.792z"/>
			<path style="fill:#636259;" d="M120.838,204.964c-1.374,0-2.383-0.303-3.024-0.907c-0.642-0.605-0.962-1.485-0.962-2.64
				c0-0.752,0.128-1.714,0.385-2.888l2.942-12.237l2.667-0.44l-1.073,4.427h4.867l-0.522,2.145h-4.867l-1.512,6.325
				c-0.22,0.862-0.33,1.613-0.33,2.255c0,0.605,0.165,1.04,0.495,1.306c0.329,0.266,0.88,0.398,1.65,0.398
				c0.531,0,1.054-0.086,1.567-0.261c0.513-0.174,0.907-0.334,1.182-0.481l0.193,2.172c-0.275,0.165-0.743,0.344-1.403,0.537
				C122.433,204.868,121.681,204.964,120.838,204.964z"/>
			<path style="fill:#636259;" d="M132.002,204.937c-0.935,0-1.742-0.133-2.42-0.398c-0.679-0.266-1.247-0.633-1.705-1.1
				c-0.458-0.468-0.797-1.013-1.018-1.636c-0.22-0.623-0.33-1.283-0.33-1.98c0-1.283,0.192-2.521,0.577-3.712
				c0.385-1.191,0.935-2.245,1.65-3.162c0.715-0.917,1.585-1.645,2.612-2.186c1.027-0.54,2.19-0.811,3.493-0.811
				c0.751,0,1.397,0.096,1.938,0.289c0.54,0.192,0.98,0.454,1.32,0.784c0.339,0.33,0.591,0.71,0.756,1.141
				c0.165,0.431,0.247,0.876,0.247,1.333c0,0.862-0.156,1.591-0.468,2.187c-0.312,0.596-0.724,1.095-1.237,1.498
				c-0.513,0.403-1.114,0.715-1.801,0.935c-0.688,0.22-1.402,0.394-2.145,0.523c-0.743,0.128-1.495,0.215-2.255,0.261
				c-0.761,0.046-1.481,0.087-2.159,0.123c-0.019,0.147-0.028,0.266-0.028,0.357c0,0.092,0,0.165,0,0.22
				c0,0.422,0.05,0.82,0.151,1.196c0.101,0.376,0.289,0.706,0.564,0.99c0.275,0.284,0.655,0.509,1.141,0.674
				c0.485,0.165,1.123,0.247,1.911,0.247c0.348,0,0.71-0.032,1.086-0.096c0.375-0.064,0.733-0.146,1.073-0.247
				c0.339-0.101,0.641-0.202,0.907-0.303c0.266-0.101,0.454-0.197,0.564-0.289l0.22,2.172c-0.367,0.202-0.958,0.418-1.773,0.646
				C134.06,204.822,133.102,204.937,132.002,204.937z M129.39,197.072c1.063-0.037,2.035-0.106,2.915-0.207
				c0.88-0.101,1.641-0.275,2.282-0.522c0.642-0.248,1.142-0.582,1.499-1.003c0.357-0.422,0.536-0.972,0.536-1.65
				c0-0.165-0.032-0.339-0.096-0.522c-0.064-0.183-0.174-0.353-0.33-0.509c-0.156-0.156-0.371-0.284-0.646-0.385
				c-0.275-0.101-0.615-0.151-1.018-0.151c-0.642,0-1.242,0.137-1.801,0.412c-0.56,0.275-1.059,0.637-1.499,1.086
				c-0.44,0.449-0.816,0.972-1.128,1.567C129.793,195.784,129.555,196.412,129.39,197.072z"/>
			<path style="fill:#636259;" d="M142.039,204.579h-2.558l3.438-14.299h2.557L142.039,204.579z M145.009,187.695
				c-0.422,0-0.775-0.128-1.059-0.385c-0.285-0.256-0.426-0.614-0.426-1.072c0-0.586,0.183-1.049,0.55-1.389
				c0.367-0.339,0.779-0.509,1.237-0.509c0.421,0,0.779,0.133,1.073,0.399c0.293,0.266,0.44,0.637,0.44,1.113
				c0,0.55-0.193,0.995-0.578,1.334C145.861,187.526,145.449,187.695,145.009,187.695z"/>
			<path style="fill:#636259;" d="M148.253,204.579h-2.558l3.3-13.749c0.843-0.257,1.755-0.463,2.736-0.619
				c0.98-0.156,1.856-0.234,2.626-0.234c0.825,0,1.535,0.115,2.131,0.344c0.596,0.23,1.077,0.541,1.444,0.935
				c0.367,0.394,0.637,0.871,0.811,1.43c0.174,0.559,0.261,1.169,0.261,1.829c0,0.422-0.037,0.866-0.11,1.333
				c-0.073,0.468-0.165,0.94-0.275,1.417l-1.76,7.314h-2.558l1.622-6.765c0.128-0.513,0.252-1.036,0.371-1.567
				c0.119-0.531,0.179-1.036,0.179-1.512c0-0.733-0.202-1.343-0.605-1.829c-0.403-0.486-1.155-0.729-2.255-0.729
				c-0.458,0-0.907,0.028-1.347,0.083c-0.44,0.055-0.807,0.128-1.1,0.22L148.253,204.579z"/>
		</g>
	</g>
</g>
</svg>
